<mxfile host="Electron" modified="2024-05-25T13:57:07.990Z" agent="Mozilla/5.0 (X11; Linux x86_64) AppleWebKit/537.36 (KHTML, like Gecko) draw.io/22.0.3 Chrome/118.0.5993.159 Electron/27.3.2 Safari/537.36" etag="03NdbokaAGGem_96WOjI" version="22.0.3" type="device">
  <diagram id="C5RBs43oDa-KdzZeNtuy" name="Page-1">
    <mxGraphModel dx="637" dy="477" grid="1" gridSize="10" guides="1" tooltips="1" connect="1" arrows="1" fold="1" page="1" pageScale="1" pageWidth="500" pageHeight="310" math="0" shadow="0">
      <root>
        <mxCell id="WIyWlLk6GJQsqaUBKTNV-0" />
        <mxCell id="WIyWlLk6GJQsqaUBKTNV-1" parent="WIyWlLk6GJQsqaUBKTNV-0" />
        <mxCell id="FHToxOj2eUstRdDKpTd--16" value="" style="group" parent="WIyWlLk6GJQsqaUBKTNV-1" vertex="1" connectable="0">
          <mxGeometry x="11" y="20" width="130" height="90" as="geometry" />
        </mxCell>
        <mxCell id="FHToxOj2eUstRdDKpTd--10" value="" style="rounded=1;whiteSpace=wrap;html=1;fontSize=12;glass=0;strokeWidth=1;shadow=0;horizontal=1;verticalAlign=top;" parent="FHToxOj2eUstRdDKpTd--16" vertex="1">
          <mxGeometry width="120" height="80" as="geometry" />
        </mxCell>
        <mxCell id="FHToxOj2eUstRdDKpTd--11" value="" style="rounded=0;whiteSpace=wrap;html=1;fillColor=#dae8fc;strokeColor=#6c8ebf;" parent="FHToxOj2eUstRdDKpTd--16" vertex="1">
          <mxGeometry x="10" y="25" width="100" height="10" as="geometry" />
        </mxCell>
        <mxCell id="FHToxOj2eUstRdDKpTd--12" value="" style="rounded=0;whiteSpace=wrap;html=1;fillColor=#dae8fc;strokeColor=#6c8ebf;" parent="FHToxOj2eUstRdDKpTd--16" vertex="1">
          <mxGeometry x="10" y="35" width="100" height="10" as="geometry" />
        </mxCell>
        <mxCell id="FHToxOj2eUstRdDKpTd--13" value="" style="rounded=0;whiteSpace=wrap;html=1;fillColor=#dae8fc;strokeColor=#6c8ebf;" parent="FHToxOj2eUstRdDKpTd--16" vertex="1">
          <mxGeometry x="10" y="45" width="100" height="10" as="geometry" />
        </mxCell>
        <mxCell id="FHToxOj2eUstRdDKpTd--14" value="" style="rounded=0;whiteSpace=wrap;html=1;fillColor=#dae8fc;strokeColor=#6c8ebf;" parent="FHToxOj2eUstRdDKpTd--16" vertex="1">
          <mxGeometry x="10" y="55" width="100" height="10" as="geometry" />
        </mxCell>
        <mxCell id="FHToxOj2eUstRdDKpTd--15" value="..." style="text;html=1;strokeColor=none;fillColor=none;align=center;verticalAlign=middle;whiteSpace=wrap;rounded=0;fillStyle=hatch;fontColor=#7EA6E0;" parent="FHToxOj2eUstRdDKpTd--16" vertex="1">
          <mxGeometry x="30" y="50" width="60" height="30" as="geometry" />
        </mxCell>
        <mxCell id="FHToxOj2eUstRdDKpTd--17" value="" style="group" parent="FHToxOj2eUstRdDKpTd--16" vertex="1" connectable="0">
          <mxGeometry x="10" y="10" width="120" height="80" as="geometry" />
        </mxCell>
        <mxCell id="FHToxOj2eUstRdDKpTd--18" value="&lt;div&gt;Input Data File&lt;/div&gt;" style="rounded=1;whiteSpace=wrap;html=1;fontSize=12;glass=0;strokeWidth=1;shadow=0;horizontal=1;verticalAlign=top;" parent="FHToxOj2eUstRdDKpTd--17" vertex="1">
          <mxGeometry width="120" height="80" as="geometry" />
        </mxCell>
        <mxCell id="FHToxOj2eUstRdDKpTd--23" value="..." style="text;html=1;strokeColor=none;fillColor=none;align=center;verticalAlign=middle;whiteSpace=wrap;rounded=0;fillStyle=hatch;fontColor=#7EA6E0;" parent="FHToxOj2eUstRdDKpTd--17" vertex="1">
          <mxGeometry x="30" y="55" width="60" height="30" as="geometry" />
        </mxCell>
        <mxCell id="FHToxOj2eUstRdDKpTd--65" value="" style="group" parent="FHToxOj2eUstRdDKpTd--17" vertex="1" connectable="0">
          <mxGeometry x="10" y="55" width="100" height="10" as="geometry" />
        </mxCell>
        <mxCell id="FHToxOj2eUstRdDKpTd--22" value="" style="rounded=0;whiteSpace=wrap;html=1;fillColor=#dae8fc;strokeColor=#6c8ebf;" parent="FHToxOj2eUstRdDKpTd--65" vertex="1">
          <mxGeometry width="100" height="10" as="geometry" />
        </mxCell>
        <mxCell id="FHToxOj2eUstRdDKpTd--60" value="" style="ellipse;whiteSpace=wrap;html=1;aspect=fixed;fillColor=#fff2cc;strokeColor=#d6b656;" parent="FHToxOj2eUstRdDKpTd--65" vertex="1">
          <mxGeometry x="47.67" y="2.5" width="5" height="5" as="geometry" />
        </mxCell>
        <mxCell id="FHToxOj2eUstRdDKpTd--63" value="" style="rhombus;whiteSpace=wrap;html=1;fillColor=#f8cecc;strokeColor=#b85450;aspect=fixed;" parent="FHToxOj2eUstRdDKpTd--65" vertex="1">
          <mxGeometry x="71.67" y="1.5" width="4.66" height="7" as="geometry" />
        </mxCell>
        <mxCell id="FHToxOj2eUstRdDKpTd--64" value="" style="rounded=0;whiteSpace=wrap;html=1;fillColor=#ffe6cc;strokeColor=#d79b00;" parent="FHToxOj2eUstRdDKpTd--65" vertex="1">
          <mxGeometry x="26.67" y="2.5" width="2.5" height="5" as="geometry" />
        </mxCell>
        <mxCell id="FHToxOj2eUstRdDKpTd--66" value="" style="group" parent="FHToxOj2eUstRdDKpTd--17" vertex="1" connectable="0">
          <mxGeometry x="10" y="45" width="100" height="10" as="geometry" />
        </mxCell>
        <mxCell id="FHToxOj2eUstRdDKpTd--67" value="" style="rounded=0;whiteSpace=wrap;html=1;fillColor=#dae8fc;strokeColor=#6c8ebf;" parent="FHToxOj2eUstRdDKpTd--66" vertex="1">
          <mxGeometry width="100" height="10" as="geometry" />
        </mxCell>
        <mxCell id="FHToxOj2eUstRdDKpTd--68" value="" style="ellipse;whiteSpace=wrap;html=1;aspect=fixed;fillColor=#fff2cc;strokeColor=#d6b656;" parent="FHToxOj2eUstRdDKpTd--66" vertex="1">
          <mxGeometry x="47.67" y="2.5" width="5" height="5" as="geometry" />
        </mxCell>
        <mxCell id="FHToxOj2eUstRdDKpTd--69" value="" style="rhombus;whiteSpace=wrap;html=1;fillColor=#f8cecc;strokeColor=#b85450;aspect=fixed;" parent="FHToxOj2eUstRdDKpTd--66" vertex="1">
          <mxGeometry x="71.67" y="1.5" width="4.66" height="7" as="geometry" />
        </mxCell>
        <mxCell id="FHToxOj2eUstRdDKpTd--70" value="" style="rounded=0;whiteSpace=wrap;html=1;fillColor=#ffe6cc;strokeColor=#d79b00;" parent="FHToxOj2eUstRdDKpTd--66" vertex="1">
          <mxGeometry x="26.67" y="2.5" width="2.5" height="5" as="geometry" />
        </mxCell>
        <mxCell id="FHToxOj2eUstRdDKpTd--71" value="" style="group" parent="FHToxOj2eUstRdDKpTd--17" vertex="1" connectable="0">
          <mxGeometry x="10" y="35" width="100" height="10" as="geometry" />
        </mxCell>
        <mxCell id="FHToxOj2eUstRdDKpTd--72" value="" style="rounded=0;whiteSpace=wrap;html=1;fillColor=#dae8fc;strokeColor=#6c8ebf;" parent="FHToxOj2eUstRdDKpTd--71" vertex="1">
          <mxGeometry width="100" height="10" as="geometry" />
        </mxCell>
        <mxCell id="FHToxOj2eUstRdDKpTd--73" value="" style="ellipse;whiteSpace=wrap;html=1;aspect=fixed;fillColor=#fff2cc;strokeColor=#d6b656;" parent="FHToxOj2eUstRdDKpTd--71" vertex="1">
          <mxGeometry x="47.67" y="2.5" width="5" height="5" as="geometry" />
        </mxCell>
        <mxCell id="FHToxOj2eUstRdDKpTd--74" value="" style="rhombus;whiteSpace=wrap;html=1;fillColor=#f8cecc;strokeColor=#b85450;aspect=fixed;" parent="FHToxOj2eUstRdDKpTd--71" vertex="1">
          <mxGeometry x="71.67" y="1.5" width="4.66" height="7" as="geometry" />
        </mxCell>
        <mxCell id="FHToxOj2eUstRdDKpTd--75" value="" style="rounded=0;whiteSpace=wrap;html=1;fillColor=#ffe6cc;strokeColor=#d79b00;" parent="FHToxOj2eUstRdDKpTd--71" vertex="1">
          <mxGeometry x="26.67" y="2.5" width="2.5" height="5" as="geometry" />
        </mxCell>
        <mxCell id="FHToxOj2eUstRdDKpTd--76" value="" style="group" parent="FHToxOj2eUstRdDKpTd--17" vertex="1" connectable="0">
          <mxGeometry x="10" y="25" width="100" height="10" as="geometry" />
        </mxCell>
        <mxCell id="FHToxOj2eUstRdDKpTd--77" value="" style="rounded=0;whiteSpace=wrap;html=1;fillColor=#dae8fc;strokeColor=#6c8ebf;" parent="FHToxOj2eUstRdDKpTd--76" vertex="1">
          <mxGeometry width="100" height="10" as="geometry" />
        </mxCell>
        <mxCell id="FHToxOj2eUstRdDKpTd--78" value="" style="ellipse;whiteSpace=wrap;html=1;aspect=fixed;fillColor=#fff2cc;strokeColor=#d6b656;" parent="FHToxOj2eUstRdDKpTd--76" vertex="1">
          <mxGeometry x="47.67" y="2.5" width="5" height="5" as="geometry" />
        </mxCell>
        <mxCell id="FHToxOj2eUstRdDKpTd--79" value="" style="rhombus;whiteSpace=wrap;html=1;fillColor=#f8cecc;strokeColor=#b85450;aspect=fixed;" parent="FHToxOj2eUstRdDKpTd--76" vertex="1">
          <mxGeometry x="71.67" y="1.5" width="4.66" height="7" as="geometry" />
        </mxCell>
        <mxCell id="FHToxOj2eUstRdDKpTd--80" value="" style="rounded=0;whiteSpace=wrap;html=1;fillColor=#ffe6cc;strokeColor=#d79b00;" parent="FHToxOj2eUstRdDKpTd--76" vertex="1">
          <mxGeometry x="26.67" y="2.5" width="2.5" height="5" as="geometry" />
        </mxCell>
        <mxCell id="FHToxOj2eUstRdDKpTd--24" value="" style="group" parent="WIyWlLk6GJQsqaUBKTNV-1" vertex="1" connectable="0">
          <mxGeometry x="2" y="210" width="140" height="90" as="geometry" />
        </mxCell>
        <mxCell id="FHToxOj2eUstRdDKpTd--26" value="" style="rounded=0;whiteSpace=wrap;html=1;fillColor=#dae8fc;strokeColor=#6c8ebf;" parent="FHToxOj2eUstRdDKpTd--24" vertex="1">
          <mxGeometry x="10" y="25" width="100" height="10" as="geometry" />
        </mxCell>
        <mxCell id="FHToxOj2eUstRdDKpTd--27" value="" style="rounded=0;whiteSpace=wrap;html=1;fillColor=#dae8fc;strokeColor=#6c8ebf;" parent="FHToxOj2eUstRdDKpTd--24" vertex="1">
          <mxGeometry x="10" y="35" width="100" height="10" as="geometry" />
        </mxCell>
        <mxCell id="FHToxOj2eUstRdDKpTd--28" value="" style="rounded=0;whiteSpace=wrap;html=1;fillColor=#dae8fc;strokeColor=#6c8ebf;" parent="FHToxOj2eUstRdDKpTd--24" vertex="1">
          <mxGeometry x="10" y="45" width="100" height="10" as="geometry" />
        </mxCell>
        <mxCell id="FHToxOj2eUstRdDKpTd--29" value="" style="rounded=0;whiteSpace=wrap;html=1;fillColor=#dae8fc;strokeColor=#6c8ebf;" parent="FHToxOj2eUstRdDKpTd--24" vertex="1">
          <mxGeometry x="10" y="55" width="100" height="10" as="geometry" />
        </mxCell>
        <mxCell id="FHToxOj2eUstRdDKpTd--30" value="..." style="text;html=1;strokeColor=none;fillColor=none;align=center;verticalAlign=middle;whiteSpace=wrap;rounded=0;fillStyle=hatch;fontColor=#7EA6E0;" parent="FHToxOj2eUstRdDKpTd--24" vertex="1">
          <mxGeometry x="30" y="50" width="60" height="30" as="geometry" />
        </mxCell>
        <mxCell id="FHToxOj2eUstRdDKpTd--31" value="" style="group" parent="FHToxOj2eUstRdDKpTd--24" vertex="1" connectable="0">
          <mxGeometry x="10" y="10" width="130" height="80" as="geometry" />
        </mxCell>
        <mxCell id="FHToxOj2eUstRdDKpTd--32" value="&lt;div&gt;Output Data File&lt;/div&gt;" style="rounded=1;whiteSpace=wrap;html=1;fontSize=12;glass=0;strokeWidth=1;shadow=0;horizontal=1;verticalAlign=top;" parent="FHToxOj2eUstRdDKpTd--31" vertex="1">
          <mxGeometry width="130" height="80" as="geometry" />
        </mxCell>
        <mxCell id="FHToxOj2eUstRdDKpTd--81" value="" style="group" parent="FHToxOj2eUstRdDKpTd--31" vertex="1" connectable="0">
          <mxGeometry x="10" y="30" width="100" height="15" as="geometry" />
        </mxCell>
        <mxCell id="FHToxOj2eUstRdDKpTd--82" value="" style="rounded=0;whiteSpace=wrap;html=1;fillColor=#dae8fc;strokeColor=#6c8ebf;" parent="FHToxOj2eUstRdDKpTd--81" vertex="1">
          <mxGeometry width="100" height="10" as="geometry" />
        </mxCell>
        <mxCell id="FHToxOj2eUstRdDKpTd--83" value="" style="ellipse;whiteSpace=wrap;html=1;aspect=fixed;fillColor=#fff2cc;strokeColor=#d6b656;" parent="FHToxOj2eUstRdDKpTd--81" vertex="1">
          <mxGeometry x="40" y="2.5" width="5" height="5" as="geometry" />
        </mxCell>
        <mxCell id="FHToxOj2eUstRdDKpTd--84" value="" style="rhombus;whiteSpace=wrap;html=1;fillColor=#f8cecc;strokeColor=#b85450;aspect=fixed;" parent="FHToxOj2eUstRdDKpTd--81" vertex="1">
          <mxGeometry x="60" y="1.5" width="4.66" height="7" as="geometry" />
        </mxCell>
        <mxCell id="FHToxOj2eUstRdDKpTd--85" value="" style="rounded=0;whiteSpace=wrap;html=1;fillColor=#ffe6cc;strokeColor=#d79b00;" parent="FHToxOj2eUstRdDKpTd--81" vertex="1">
          <mxGeometry x="17.67" y="2.5" width="2.5" height="5" as="geometry" />
        </mxCell>
        <mxCell id="3o-h2bCJ7RnGyizmIcSC-3" value="" style="verticalLabelPosition=bottom;verticalAlign=top;html=1;shape=mxgraph.basic.star;aspect=fixed;fillColor=#e1d5e7;strokeColor=#9673a6;" vertex="1" parent="FHToxOj2eUstRdDKpTd--81">
          <mxGeometry x="78" y="2.5" width="5.26" height="5" as="geometry" />
        </mxCell>
        <mxCell id="FHToxOj2eUstRdDKpTd--55" value="" style="group" parent="WIyWlLk6GJQsqaUBKTNV-1" vertex="1" connectable="0">
          <mxGeometry x="325" y="90" width="163" height="100" as="geometry" />
        </mxCell>
        <mxCell id="3o-h2bCJ7RnGyizmIcSC-7" value="" style="group" vertex="1" connectable="0" parent="FHToxOj2eUstRdDKpTd--55">
          <mxGeometry x="7" width="163" height="100" as="geometry" />
        </mxCell>
        <mxCell id="FHToxOj2eUstRdDKpTd--54" value="" style="rounded=1;whiteSpace=wrap;html=1;fontSize=12;glass=0;strokeWidth=1;shadow=0;verticalAlign=top;" parent="3o-h2bCJ7RnGyizmIcSC-7" vertex="1">
          <mxGeometry width="135" height="80" as="geometry" />
        </mxCell>
        <mxCell id="FHToxOj2eUstRdDKpTd--53" value="" style="rounded=1;whiteSpace=wrap;html=1;fontSize=12;glass=0;strokeWidth=1;shadow=0;verticalAlign=top;" parent="3o-h2bCJ7RnGyizmIcSC-7" vertex="1">
          <mxGeometry x="13" y="10" width="135" height="80" as="geometry" />
        </mxCell>
        <mxCell id="WIyWlLk6GJQsqaUBKTNV-7" value="Processor" style="rounded=1;whiteSpace=wrap;html=1;fontSize=12;glass=0;strokeWidth=1;shadow=0;verticalAlign=top;" parent="3o-h2bCJ7RnGyizmIcSC-7" vertex="1">
          <mxGeometry x="28" y="20" width="135" height="80" as="geometry" />
        </mxCell>
        <mxCell id="FHToxOj2eUstRdDKpTd--48" value="" style="rhombus;whiteSpace=wrap;html=1;fillColor=#f8cecc;strokeColor=#b85450;perimeterSpacing=5;" parent="3o-h2bCJ7RnGyizmIcSC-7" vertex="1">
          <mxGeometry x="45" y="55" width="20" height="30" as="geometry" />
        </mxCell>
        <mxCell id="FHToxOj2eUstRdDKpTd--52" value="" style="shape=flexArrow;endArrow=classic;html=1;rounded=0;fillColor=#f5f5f5;strokeColor=#666666;" parent="3o-h2bCJ7RnGyizmIcSC-7" edge="1">
          <mxGeometry width="50" height="50" relative="1" as="geometry">
            <mxPoint x="75.5" y="69.70999999999998" as="sourcePoint" />
            <mxPoint x="115.5" y="69.70999999999998" as="targetPoint" />
          </mxGeometry>
        </mxCell>
        <mxCell id="3o-h2bCJ7RnGyizmIcSC-5" value="" style="verticalLabelPosition=bottom;verticalAlign=top;html=1;shape=mxgraph.basic.star;fillColor=#e1d5e7;strokeColor=#9673a6;perimeterSpacing=15;" vertex="1" parent="3o-h2bCJ7RnGyizmIcSC-7">
          <mxGeometry x="125" y="57.5" width="30" height="25" as="geometry" />
        </mxCell>
        <mxCell id="3o-h2bCJ7RnGyizmIcSC-2" value="" style="group" vertex="1" connectable="0" parent="WIyWlLk6GJQsqaUBKTNV-1">
          <mxGeometry x="120" y="120" width="180" height="90" as="geometry" />
        </mxCell>
        <mxCell id="3o-h2bCJ7RnGyizmIcSC-6" value="" style="group" vertex="1" connectable="0" parent="3o-h2bCJ7RnGyizmIcSC-2">
          <mxGeometry width="180" height="90" as="geometry" />
        </mxCell>
        <mxCell id="FHToxOj2eUstRdDKpTd--40" value="Event Bus" style="rounded=0;whiteSpace=wrap;html=1;verticalAlign=top;align=left;spacingLeft=5;spacingTop=-2;" parent="3o-h2bCJ7RnGyizmIcSC-6" vertex="1">
          <mxGeometry width="180" height="90" as="geometry" />
        </mxCell>
        <mxCell id="FHToxOj2eUstRdDKpTd--38" value="" style="rounded=0;whiteSpace=wrap;html=1;fillColor=#dae8fc;strokeColor=#6c8ebf;" parent="3o-h2bCJ7RnGyizmIcSC-6" vertex="1">
          <mxGeometry x="10" y="25" width="150" height="55" as="geometry" />
        </mxCell>
        <mxCell id="FHToxOj2eUstRdDKpTd--41" value="" style="rounded=0;whiteSpace=wrap;html=1;fillColor=#ffe6cc;strokeColor=#d79b00;" parent="3o-h2bCJ7RnGyizmIcSC-2" vertex="1">
          <mxGeometry x="20" y="32.5" width="20" height="40" as="geometry" />
        </mxCell>
        <mxCell id="FHToxOj2eUstRdDKpTd--42" value="" style="ellipse;whiteSpace=wrap;html=1;aspect=fixed;fillColor=#fff2cc;strokeColor=#d6b656;" parent="3o-h2bCJ7RnGyizmIcSC-2" vertex="1">
          <mxGeometry x="50" y="42.5" width="20" height="20" as="geometry" />
        </mxCell>
        <mxCell id="FHToxOj2eUstRdDKpTd--43" value="" style="rhombus;whiteSpace=wrap;html=1;fillColor=#f8cecc;strokeColor=#b85450;perimeterSpacing=5;" parent="3o-h2bCJ7RnGyizmIcSC-2" vertex="1">
          <mxGeometry x="80" y="37.5" width="20" height="30" as="geometry" />
        </mxCell>
        <mxCell id="3o-h2bCJ7RnGyizmIcSC-4" value="" style="verticalLabelPosition=bottom;verticalAlign=top;html=1;shape=mxgraph.basic.star;fillColor=#e1d5e7;strokeColor=#9673a6;perimeterSpacing=15;" vertex="1" parent="3o-h2bCJ7RnGyizmIcSC-2">
          <mxGeometry x="115" y="37.5" width="30" height="25" as="geometry" />
        </mxCell>
        <mxCell id="Bh_BTeXgZDsY3vDCrFj1-9" value="" style="edgeStyle=orthogonalEdgeStyle;rounded=0;orthogonalLoop=1;jettySize=auto;html=1;entryX=0.5;entryY=0;entryDx=0;entryDy=0;fillColor=#dae8fc;strokeColor=#6c8ebf;exitX=1;exitY=0.5;exitDx=0;exitDy=0;" parent="WIyWlLk6GJQsqaUBKTNV-1" source="FHToxOj2eUstRdDKpTd--77" target="FHToxOj2eUstRdDKpTd--38" edge="1">
          <mxGeometry relative="1" as="geometry">
            <mxPoint x="150" y="62.5" as="sourcePoint" />
            <mxPoint x="240" y="110" as="targetPoint" />
          </mxGeometry>
        </mxCell>
        <mxCell id="Bh_BTeXgZDsY3vDCrFj1-29" value="start event" style="edgeLabel;html=1;align=center;verticalAlign=middle;resizable=0;points=[];spacing=10;labelBackgroundColor=none;" parent="Bh_BTeXgZDsY3vDCrFj1-9" vertex="1" connectable="0">
          <mxGeometry x="-0.1143" y="-3" relative="1" as="geometry">
            <mxPoint x="16" y="-13" as="offset" />
          </mxGeometry>
        </mxCell>
        <mxCell id="Bh_BTeXgZDsY3vDCrFj1-10" value="" style="edgeStyle=orthogonalEdgeStyle;rounded=0;orthogonalLoop=1;jettySize=auto;html=1;entryX=1;entryY=0.5;entryDx=0;entryDy=0;exitX=0.5;exitY=1;exitDx=0;exitDy=0;fillColor=#dae8fc;strokeColor=#6c8ebf;" parent="WIyWlLk6GJQsqaUBKTNV-1" source="FHToxOj2eUstRdDKpTd--38" target="FHToxOj2eUstRdDKpTd--82" edge="1">
          <mxGeometry relative="1" as="geometry">
            <mxPoint x="150" y="250" as="targetPoint" />
            <mxPoint x="240" y="230" as="sourcePoint" />
          </mxGeometry>
        </mxCell>
        <mxCell id="Bh_BTeXgZDsY3vDCrFj1-30" value="&lt;div&gt;end event&lt;/div&gt;" style="edgeLabel;html=1;align=center;verticalAlign=middle;resizable=0;points=[];labelBackgroundColor=none;" parent="Bh_BTeXgZDsY3vDCrFj1-10" vertex="1" connectable="0">
          <mxGeometry x="-0.0308" y="5" relative="1" as="geometry">
            <mxPoint x="18" as="offset" />
          </mxGeometry>
        </mxCell>
        <mxCell id="Bh_BTeXgZDsY3vDCrFj1-14" value="" style="curved=1;endArrow=classic;html=1;rounded=0;exitX=1;exitY=0;exitDx=0;exitDy=0;fillColor=#dae8fc;strokeColor=#6c8ebf;movable=1;resizable=1;rotatable=1;deletable=1;editable=1;locked=0;connectable=1;entryX=0;entryY=0;entryDx=0;entryDy=0;" parent="WIyWlLk6GJQsqaUBKTNV-1" source="FHToxOj2eUstRdDKpTd--43" target="FHToxOj2eUstRdDKpTd--48" edge="1">
          <mxGeometry width="50" height="50" relative="1" as="geometry">
            <mxPoint x="265" y="330" as="sourcePoint" />
            <mxPoint x="360" y="150" as="targetPoint" />
            <Array as="points">
              <mxPoint x="310" y="110" />
            </Array>
          </mxGeometry>
        </mxCell>
        <mxCell id="Bh_BTeXgZDsY3vDCrFj1-31" value="get" style="edgeLabel;html=1;align=center;verticalAlign=middle;resizable=0;points=[];" parent="Bh_BTeXgZDsY3vDCrFj1-14" vertex="1" connectable="0">
          <mxGeometry x="0.1247" y="-5" relative="1" as="geometry">
            <mxPoint x="4" y="5" as="offset" />
          </mxGeometry>
        </mxCell>
        <mxCell id="Bh_BTeXgZDsY3vDCrFj1-15" value="" style="curved=1;endArrow=classic;html=1;rounded=0;entryX=0.667;entryY=0.54;entryDx=0;entryDy=0;fillColor=#dae8fc;strokeColor=#6c8ebf;exitX=0.5;exitY=0.76;exitDx=0;exitDy=0;exitPerimeter=0;entryPerimeter=0;" parent="WIyWlLk6GJQsqaUBKTNV-1" source="3o-h2bCJ7RnGyizmIcSC-5" target="3o-h2bCJ7RnGyizmIcSC-4" edge="1">
          <mxGeometry width="50" height="50" relative="1" as="geometry">
            <mxPoint x="458" y="170" as="sourcePoint" />
            <mxPoint x="266" y="176.5" as="targetPoint" />
            <Array as="points">
              <mxPoint x="340" y="220" />
            </Array>
          </mxGeometry>
        </mxCell>
        <mxCell id="Bh_BTeXgZDsY3vDCrFj1-32" value="add" style="edgeLabel;html=1;align=center;verticalAlign=middle;resizable=0;points=[];labelBackgroundColor=none;" parent="Bh_BTeXgZDsY3vDCrFj1-15" vertex="1" connectable="0">
          <mxGeometry x="-0.123" y="-3" relative="1" as="geometry">
            <mxPoint x="-14" y="2" as="offset" />
          </mxGeometry>
        </mxCell>
      </root>
    </mxGraphModel>
  </diagram>
</mxfile>
